HIERARCHY
ROOT Hips
{
	OFFSET 0.000000 8.830580 0.000000
	CHANNELS 6 Xposition Yposition Zposition Zrotation Yrotation Xrotation 
	JOINT Spine
	{
		OFFSET 0.000000 0.010000 0.000000
		CHANNELS 3 Zrotation Yrotation Xrotation
		JOINT Spine1
		{
			OFFSET 0.000000 2.459130 0.000000
			CHANNELS 3 Zrotation Yrotation Xrotation
			JOINT Neck
			{
				OFFSET 0.000000 2.484630 0.000000
				CHANNELS 3 Zrotation Yrotation Xrotation
				JOINT Head_virtual
				{
					OFFSET 0.000000 0.000000 0.000000
					CHANNELS 3 Zrotation Yrotation Xrotation
					JOINT Head
					{
						OFFSET 0.000000 0.927525 0.000000
						CHANNELS 3 Zrotation Yrotation Xrotation
						End Site
						{
							OFFSET 0.000000 0.000000 0.000000
						}
					}
				}
				JOINT LeftUpArm_virtual
				{
					OFFSET 0.000000 0.000000 0.000000
					CHANNELS 3 Zrotation Yrotation Xrotation
					JOINT LeftUpArm
					{
						OFFSET 1.248820 0.000000 0.000000
						CHANNELS 3 Zrotation Yrotation Xrotation
						JOINT LeftForeArm
						{
							OFFSET 2.597580 0.000000 0.000000
							CHANNELS 3 Zrotation Yrotation Xrotation
							JOINT LeftHand
							{
								OFFSET 2.455420 0.000000 0.000000
								CHANNELS 3 Zrotation Yrotation Xrotation
								End Site
								{
									OFFSET 0.000000 0.000000 0.000000
								}
							}
						}
					}
				}
				JOINT RightUpArm_virtual
				{
					OFFSET -0.000000 -0.000000 -0.000000
					CHANNELS 3 Zrotation Yrotation Xrotation
					JOINT RightUpArm
					{
						OFFSET -1.248820 -0.000000 -0.000000
						CHANNELS 3 Zrotation Yrotation Xrotation
						JOINT RightForeArm
						{
							OFFSET -2.597580 -0.000000 -0.000000
							CHANNELS 3 Zrotation Yrotation Xrotation
							JOINT RightHand
							{
								OFFSET -2.455420 -0.000000 -0.000000
								CHANNELS 3 Zrotation Yrotation Xrotation
								End Site
								{
									OFFSET 0.000000 0.000000 0.000000
								}
							}
						}
					}
				}
			}
		}
	}
	JOINT LeftUpLeg
	{
		OFFSET 1.271939 0.000000 0.000000
		CHANNELS 3 Zrotation Yrotation Xrotation
		JOINT LeftLowLeg
		{
			OFFSET 0.000000 -4.342910 0.000000
			CHANNELS 3 Zrotation Yrotation Xrotation
			JOINT LeftFoot
			{
				OFFSET 0.000000 -4.487670 0.000000
				CHANNELS 3 Zrotation Yrotation Xrotation
				JOINT LeftToeBase
				{
					OFFSET 0.000000 0.000000 1.515070
					CHANNELS 3 Zrotation Yrotation Xrotation
					End Site
					{
						OFFSET 0.000000 0.000000 0.000000
					}
				}
			}
		}
	}
	JOINT RightUpLeg
	{
		OFFSET -1.271939 0.000000 0.000000
		CHANNELS 3 Zrotation Yrotation Xrotation
		JOINT RightLowLeg
		{
			OFFSET 0.000000 -4.342910 0.000000
			CHANNELS 3 Zrotation Yrotation Xrotation
			JOINT RightFoot
			{
				OFFSET 0.000000 -4.487670 0.000000
				CHANNELS 3 Zrotation Yrotation Xrotation
				JOINT RightToeBase
				{
					OFFSET 0.000000 0.000000 1.515070
					CHANNELS 3 Zrotation Yrotation Xrotation
					End Site
					{
						OFFSET 0.000000 0.000000 0.000000
					}
				}
			}
		}
	}
}
MOTION
Frames: 16
Frame Time: 0.041667
-16.992906 9.111831 43.336685 -176.552570 3.988321 -171.292035 -1.003172 -0.109873 -10.562820 6.155087 0.268066 -9.061760 0.000000 0.000000 0.000000 -7.884068 -6.974765 16.245502 18.461250 11.188873 -89.027745 -23.933800 9.336470 -11.983300 11.249300 -11.335300 -29.195101 0.000000 -7.797740 0.000000 23.257299 11.194300 22.398500 20.193300 -6.331420 -2.468994 -7.738310 1.094010 -51.292599 0.000000 14.464800 0.000000 -20.467800 -8.867050 45.846001 0.771654 2.302977 -6.692470 0.000000 0.000000 6.280080 -15.009818 9.262125 -0.159783 0.000000 0.000000 -26.686400 6.974736 6.861603 -4.811925 0.000000 0.000000 8.529790 9.896240 -20.443676 1.900864 0.000000 0.000000 -31.350500 
-16.990230 9.112567 43.338832 -176.562560 4.065378 -171.364501 -0.971921 -0.080224 -10.553511 6.138274 0.284247 -8.983441 0.000000 0.000000 0.000000 -7.980672 -6.923028 16.417316 18.485654 11.132009 -88.977286 -23.946199 9.340490 -11.904900 11.322700 -11.283900 -29.222401 0.000000 -7.796500 0.000000 23.318899 11.235900 22.383400 20.169001 -6.293610 -2.410004 -7.752810 1.097440 -51.278900 0.000000 14.502000 0.000000 -20.489799 -8.896440 45.810501 0.774580 2.331766 -6.628423 0.000000 0.000000 6.289040 -15.017177 9.303351 -0.144602 0.000000 0.000000 -26.667300 6.976671 6.867358 -4.765367 0.000000 0.000000 8.549130 9.884712 -20.386176 1.939629 0.000000 0.000000 -31.345100 
-16.987830 9.113101 43.342008 -176.564354 4.132521 -171.419692 -0.931894 -0.045407 -10.528603 6.114970 0.304058 -8.915786 0.000000 0.000000 0.000000 -8.095255 -6.822807 16.572230 18.475614 11.104348 -88.954943 -23.932899 9.380910 -11.815400 11.340100 -11.264200 -29.235800 0.000000 -7.818900 0.000000 23.320000 11.160400 22.106199 20.094801 -6.305860 -2.570007 -7.681920 1.172320 -50.943802 0.000000 14.529400 0.000000 -20.637800 -8.931870 45.622002 0.780208 2.383973 -6.591891 0.000000 0.000000 6.304590 -15.022354 9.331677 -0.127994 0.000000 0.000000 -26.677500 6.982535 6.914351 -4.751233 0.000000 0.000000 8.581420 9.930270 -20.362643 1.961415 0.000000 0.000000 -31.382999 
-16.985491 9.113455 43.347071 -176.561888 4.185422 -171.475934 -0.847131 -0.033883 -10.437802 6.026846 0.295463 -8.931380 0.000000 0.000000 0.000000 -8.181878 -6.727019 16.725549 18.453474 11.076336 -88.871085 -23.856100 9.458030 -11.830400 11.277300 -11.243000 -29.338600 0.000000 -7.918310 0.000000 23.249701 11.171400 22.101000 20.102501 -6.316100 -2.523987 -7.663790 1.300450 -51.022900 0.000000 14.517900 0.000000 -20.640400 -8.801480 45.597500 0.785013 2.502271 -6.595447 0.000000 0.000000 6.372250 -15.031811 9.285268 -0.124025 0.000000 0.000000 -26.651600 6.996559 6.817730 -4.773975 0.000000 0.000000 8.670920 9.944246 -20.230425 1.986172 0.000000 0.000000 -31.350500 
-16.983909 9.114501 43.352979 -176.563754 4.315769 -171.594793 -0.804795 0.032362 -10.264302 5.993075 0.352613 -8.950431 0.000000 0.000000 0.000000 -8.250023 -6.683287 16.861655 18.445166 11.038149 -88.818678 -23.895599 9.503640 -11.877700 11.315700 -11.340800 -29.426500 0.000000 -7.866660 0.000000 23.249500 11.125600 22.192200 20.109600 -6.160240 -2.308990 -7.671890 1.095250 -51.169102 0.000000 14.614300 0.000000 -20.475401 -8.903480 45.446301 0.782639 2.594251 -6.489900 0.000000 0.000000 6.358990 -15.030369 9.335611 -0.080567 0.000000 0.000000 -26.646700 6.993034 6.918555 -4.747387 0.000000 0.000000 8.767630 9.991357 -20.195768 2.010238 0.000000 0.000000 -31.268299 
-16.982083 9.115586 43.359852 -176.554737 4.377143 -171.645944 -0.761792 0.080686 -10.169810 5.961066 0.389905 -8.942609 0.000000 0.000000 0.000000 -8.341515 -6.575498 17.053912 18.532486 11.026918 -88.772397 -23.886200 9.471300 -11.946000 11.265400 -11.313400 -29.222200 0.000000 -7.969720 0.000000 23.172100 11.194300 22.078501 20.083300 -6.174480 -2.317993 -7.607760 1.126570 -51.243801 0.000000 14.655400 0.000000 -20.378099 -8.905890 45.399601 0.798214 2.664529 -6.488185 0.000000 0.000000 6.386170 -15.037924 9.339748 -0.042666 0.000000 0.000000 -26.686800 7.001326 6.940068 -4.782774 0.000000 0.000000 8.841410 10.070410 -20.146844 2.057971 0.000000 0.000000 -31.216600 
-16.980872 9.117001 43.367876 -176.530891 4.385747 -171.653870 -0.654870 0.111304 -10.091219 5.841970 0.394428 -8.933233 0.000000 0.000000 0.000000 -8.350271 -6.520415 17.171254 18.528623 11.027625 -88.656971 -23.811399 9.450930 -12.081400 11.144800 -11.324000 -29.153000 0.000000 -8.044480 0.000000 23.174101 11.128400 22.132000 20.099701 -6.186690 -2.432007 -7.530710 1.180710 -51.129601 0.000000 14.676300 0.000000 -20.303101 -8.911230 45.056499 0.837161 2.581468 -6.552809 0.000000 0.000000 6.434810 -15.060286 9.437819 -0.033453 0.000000 0.000000 -26.668100 7.016412 6.811422 -4.885083 0.000000 0.000000 8.942240 10.210026 -19.976008 2.136176 0.000000 0.000000 -31.298700 
-16.979861 9.119738 43.376206 -176.523399 4.448544 -171.720574 -0.614991 0.154232 -9.940506 5.817229 0.429877 -8.965614 0.000000 0.000000 0.000000 -8.388014 -6.475145 17.339101 18.530357 10.994416 -88.531205 -23.824699 9.443930 -11.815700 11.157100 -11.312900 -29.529900 0.000000 -8.022630 0.000000 23.227501 10.966500 22.155701 20.126699 -6.214300 -2.300995 -7.530120 1.247100 -51.199402 0.000000 14.638300 0.000000 -20.392799 -8.817430 45.272400 0.849621 2.682275 -6.545913 0.000000 0.000000 6.458900 -15.069112 9.419151 0.080587 0.000000 0.000000 -26.718400 7.008284 6.430764 -5.007044 0.000000 0.000000 9.180330 10.312940 -19.501026 2.255125 0.000000 0.000000 -31.091000 
-16.979807 9.121873 43.384604 -176.490952 4.521636 -171.733825 -0.602721 0.182420 -9.896690 5.884041 0.447838 -8.876314 0.000000 0.000000 0.000000 -8.455236 -6.389934 17.435300 18.545824 10.967804 -88.460615 -23.830000 9.438810 -11.808800 11.062600 -11.274200 -29.479200 0.000000 -8.089690 0.000000 23.229500 10.980600 21.928900 20.083000 -6.151680 -2.343994 -7.483100 1.273190 -51.096802 0.000000 14.605500 0.000000 -20.393000 -8.770250 45.189098 0.868556 2.831996 -6.624517 0.000000 0.000000 6.548530 -15.061536 9.372213 0.137941 0.000000 0.000000 -26.717600 7.012458 6.290279 -5.154103 0.000000 0.000000 9.383730 10.451395 -19.222150 2.323078 0.000000 0.000000 -30.988000 
-16.981776 9.125389 43.400619 -176.429356 4.605326 -171.815788 -0.466453 0.258544 -9.542888 5.774120 0.506395 -9.094418 0.000000 0.000000 0.000000 -8.070367 -6.909044 17.498525 18.341397 10.911631 -88.193303 -23.703800 9.431110 -11.776000 10.874600 -11.267300 -29.209700 0.000000 -8.182680 0.000000 23.176701 10.989300 21.659500 20.058599 -6.115840 -2.058014 -7.392280 1.218540 -51.177799 0.000000 14.529000 0.000000 -20.288000 -8.696950 45.039799 0.904636 3.061472 -6.740625 0.000000 0.000000 6.748390 -15.034738 9.262023 0.236483 0.000000 0.000000 -26.742800 7.028847 6.166808 -5.314008 0.000000 0.000000 9.626440 10.606472 -18.964490 2.472694 0.000000 0.000000 -30.946800 
-16.984356 9.127781 43.412650 -176.404846 4.701180 -171.839273 -0.398648 0.308833 -9.443408 5.718433 0.536479 -9.020659 0.000000 0.000000 0.000000 -8.108615 -6.759663 17.670677 18.431783 10.929526 -88.029003 -23.614799 9.452300 -11.812500 10.708100 -11.341900 -29.395000 0.000000 -8.247310 0.000000 23.083300 10.958400 21.858400 20.024000 -6.077980 -2.045990 -7.286400 1.266040 -51.091702 0.000000 14.484700 0.000000 -20.263300 -8.645600 44.961899 0.898842 3.201980 -6.833349 0.000000 0.000000 6.841710 -15.007818 9.249872 0.315300 0.000000 0.000000 -26.739500 7.007568 6.146254 -5.398825 0.000000 0.000000 9.685350 10.712633 -18.802182 2.571403 0.000000 0.000000 -30.761400 
-16.987287 9.130057 43.427933 -176.375368 4.802435 -171.989321 -0.323479 0.369877 -9.121832 5.626372 0.585619 -9.081778 0.000000 0.000000 0.000000 -8.061058 -6.731099 17.930703 18.460397 10.949361 -87.808464 -23.566999 9.440210 -11.666500 10.658900 -11.442100 -30.009501 0.000000 -8.255090 0.000000 23.093800 10.781500 22.214100 19.983601 -6.049010 -2.049011 -7.127290 1.328220 -51.224400 0.000000 14.529800 0.000000 -20.185200 -8.785490 45.038200 0.907588 3.300268 -6.813573 0.000000 0.000000 6.927260 -14.976615 9.284443 0.386057 0.000000 0.000000 -26.734200 7.010294 6.060610 -5.381476 0.000000 0.000000 9.748570 10.757615 -18.627715 2.700886 0.000000 0.000000 -30.712000 
-16.991530 9.131805 43.444435 -176.334154 4.909110 -172.095358 -0.253854 0.418960 -8.879149 5.585140 0.619774 -9.081046 0.000000 0.000000 0.000000 -8.083951 -6.612744 18.232636 18.553028 10.955028 -87.579738 -23.488701 9.479990 -11.587200 10.512800 -11.517400 -30.001900 0.000000 -8.415970 0.000000 23.061501 10.722900 21.967199 19.912901 -5.942850 -1.962006 -6.970340 1.330690 -51.254902 0.000000 14.562400 0.000000 -20.072901 -8.845440 44.559601 0.909717 3.479303 -6.834177 0.000000 0.000000 6.988350 -14.934884 9.249717 0.474774 0.000000 0.000000 -26.757100 7.013492 5.936557 -5.436694 0.000000 0.000000 9.846710 10.820452 -18.409218 2.817914 0.000000 0.000000 -30.643000 
-16.996270 9.133454 43.461545 -176.306404 4.994468 -172.236958 -0.217485 0.474763 -8.660509 5.534651 0.663971 -9.001570 0.000000 0.000000 0.000000 -8.040730 -6.584752 18.613878 18.591679 10.974933 -87.323473 -23.402700 9.426740 -11.456900 10.357100 -11.459000 -29.493500 0.000000 -8.835480 0.000000 22.969801 10.796800 21.234900 19.879801 -5.933350 -1.833008 -6.830610 1.410490 -51.340099 0.000000 14.570100 0.000000 -20.004299 -8.758260 44.222599 0.887617 3.830616 -6.845897 0.000000 0.000000 7.088130 -14.876460 9.053488 0.596329 0.000000 0.000000 -26.762100 7.010993 5.727028 -5.477172 0.000000 0.000000 9.969500 10.839443 -18.159317 2.948157 0.000000 0.000000 -30.700500 
-17.002709 9.135167 43.479855 -176.263332 5.057643 -172.406661 -0.149662 0.517927 -8.401186 5.452971 0.691502 -8.956288 0.000000 0.000000 0.000000 -7.997948 -6.560001 19.112800 18.586736 11.019120 -87.069445 -23.317900 9.405510 -11.349700 10.165300 -11.536900 -29.801399 0.000000 -9.288500 0.000000 23.019699 10.603100 21.381300 19.897100 -5.957680 -1.674011 -6.732460 1.551270 -51.423302 0.000000 14.574600 0.000000 -19.935301 -8.626740 43.829300 0.906049 3.829778 -6.786526 0.000000 0.000000 7.092410 -14.838098 9.116386 0.686675 0.000000 0.000000 -26.856100 7.013838 5.459680 -5.512234 0.000000 0.000000 10.127100 10.900102 -17.847081 3.082678 0.000000 0.000000 -30.775400 
-17.010403 9.135780 43.499059 -176.210760 5.179702 -172.416620 -0.069727 0.599818 -8.317729 5.344922 0.754919 -8.884777 0.000000 0.000000 0.000000 -7.921384 -6.547876 19.636730 18.657806 11.039925 -86.705379 -23.226200 9.353280 -11.251600 9.938040 -11.551800 -29.854000 0.000000 -9.974110 0.000000 23.052700 10.347200 21.255800 19.872200 -5.964840 -1.561005 -6.547890 1.660030 -51.487701 0.000000 14.621400 0.000000 -19.744900 -8.376770 43.214500 0.917023 3.851263 -6.846635 0.000000 0.000000 7.029310 -14.784887 9.198921 0.756935 0.000000 0.000000 -26.932800 6.997173 5.331672 -5.769456 0.000000 0.000000 10.392900 10.937505 -17.592528 3.168638 0.000000 0.000000 -30.783600 
